<?xml version="1.0" ?><svg height="32" id="svg2" overflow="visible" style="fill-rule:evenodd;stroke-width:0.50099999;stroke-linejoin:bevel;overflow:visible" version="1.1" viewBox="0 0 25.600005 25.600001" width="32" xmlns="http://www.w3.org/2000/svg" xmlns:cc="http://creativecommons.org/ns#" xmlns:dc="http://purl.org/dc/elements/1.1/" xmlns:inkscape="http://www.inkscape.org/namespaces/inkscape" xmlns:rdf="http://www.w3.org/1999/02/22-rdf-syntax-ns#" xmlns:sodipodi="http://sodipodi.sourceforge.net/DTD/sodipodi-0.dtd" xmlns:svg="http://www.w3.org/2000/svg" xmlns:xlink="http://www.w3.org/1999/xlink"><script id="script3301" xlink:href=""/><script id="script3299" xlink:href=""/><defs id="defs4"><marker id="DefaultArrow2" markerHeight="1" markerUnits="strokeWidth" markerWidth="1" orient="auto" overflow="visible" style="overflow:visible" viewBox="0 0 1 1"><g id="g7" transform="scale(0.00925926,0.00925926)"><path d="M -9,54 -9,-54 117,0 z" id="path9"/></g></marker><marker id="DefaultArrow3" markerHeight="1" markerUnits="strokeWidth" markerWidth="1" orient="auto" overflow="visible" style="overflow:visible" viewBox="0 0 1 1"><g id="g12" transform="scale(0.00925926,0.00925926)"><path d="M -27,54 -9,0 -27,-54 135,0 z" id="path14"/></g></marker><marker id="DefaultArrow4" markerHeight="1" markerUnits="strokeWidth" markerWidth="1" orient="auto" overflow="visible" style="overflow:visible" viewBox="0 0 1 1"><g id="g17" transform="scale(0.00925926,0.00925926)"><path d="M -9,0 -9,-45 C -9,-51.708 2.808,-56.58 9,-54 L 117,-9 C 120.916,-7.369 126,-4.242 126,0 126,4.242 120.916,7.369 117,9 L 9,54 C 2.808,56.58 -9,51.708 -9,45 z" id="path19"/></g></marker><marker id="DefaultArrow5" markerHeight="1" markerUnits="strokeWidth" markerWidth="1" orient="auto" overflow="visible" style="overflow:visible" viewBox="0 0 1 1"><g id="g22" transform="scale(0.00925926,0.00925926)"><path d="M -54,0 C -54,29.807 -29.807,54 0,54 29.807,54 54,29.807 54,0 54,-29.807 29.807,-54 0,-54 -29.807,-54 -54,-29.807 -54,0 z" id="path24"/></g></marker><marker id="DefaultArrow6" markerHeight="1" markerUnits="strokeWidth" markerWidth="1" orient="auto" overflow="visible" style="overflow:visible" viewBox="0 0 1 1"><g id="g27" transform="scale(0.00925926,0.00925926)"><path d="M -63,0 0,63 63,0 0,-63 z" id="path29"/></g></marker><marker id="DefaultArrow7" markerHeight="1" markerUnits="strokeWidth" markerWidth="1" orient="auto" overflow="visible" style="overflow:visible" viewBox="0 0 1 1"><g id="g32" transform="scale(0.00925926,0.00925926)"><path d="M 18,-54 108,-54 63,0 108,54 18,54 -36,0 z" id="path34"/></g></marker><marker id="DefaultArrow8" markerHeight="1" markerUnits="strokeWidth" markerWidth="1" orient="auto" overflow="visible" style="overflow:visible" viewBox="0 0 1 1"><g id="g37" transform="scale(0.00925926,0.00925926)"><path d="M -36,0 18,-54 54,-54 18,-18 27,-18 63,-54 99,-54 63,-18 72,-18 108,-54 144,-54 90,0 144,54 108,54 72,18 63,18 99,54 63,54 27,18 18,18 54,54 18,54 z" id="path39"/></g></marker><marker id="DefaultArrow9" markerHeight="1" markerUnits="strokeWidth" markerWidth="1" orient="auto" overflow="visible" style="overflow:visible" viewBox="0 0 1 1"><g id="g42" transform="scale(0.00925926,0.00925926)"><path d="M 0,45 -45,0 0,-45 45,0 z M 0,63 -63,0 0,-63 63,0 z" id="path44"/></g></marker><filter color-interpolation-filters="sRGB" id="StainedFilter"><feBlend id="feBlend47" in="SourceGraphic" in2="BackgroundImage" mode="multiply" result="blend"/><feComposite id="feComposite49" in="blend" in2="SourceAlpha" operator="in" result="comp"/></filter><filter color-interpolation-filters="sRGB" id="BleachFilter"><feBlend id="feBlend52" in="SourceGraphic" in2="BackgroundImage" mode="screen" result="blend"/><feComposite id="feComposite54" in="blend" in2="SourceAlpha" operator="in" result="comp"/></filter><filter color-interpolation-filters="sRGB" id="InvertTransparencyBitmapFilter"><feComponentTransfer id="feComponentTransfer57"><feFuncR amplitude="1.055" exponent=".416666666" id="feFuncR59" offset="-0.055" type="gamma"/><feFuncG amplitude="1.055" exponent=".416666666" id="feFuncG61" offset="-0.055" type="gamma"/><feFuncB amplitude="1.055" exponent=".416666666" id="feFuncB63" offset="-0.055" type="gamma"/></feComponentTransfer><feComponentTransfer id="feComponentTransfer65"><feFuncR id="feFuncR67" intercept="1" slope="-1" type="linear"/><feFuncG id="feFuncG69" intercept="1" slope="-1" type="linear"/><feFuncB id="feFuncB71" intercept="1" slope="-1" type="linear"/><feFuncA id="feFuncA73" intercept="0" slope="1" type="linear"/></feComponentTransfer><feComponentTransfer id="feComponentTransfer75"><feFuncR amplitude="1" exponent="2.4" id="feFuncR77" offset="0" type="gamma"/><feFuncG amplitude="1" exponent="2.4" id="feFuncG79" offset="0" type="gamma"/><feFuncB amplitude="1" exponent="2.4" id="feFuncB81" offset="0" type="gamma"/></feComponentTransfer></filter><radialGradient cx="0" cy="0" gradientTransform="matrix(0,-1,0.886054,0,172.174,122.358)" gradientUnits="userSpaceOnUse" id="RadialGradient" r="237.42799"><stop id="stop84" offset="0" stop-color="#473600"/><stop id="stop86" offset="0.792135000228882" stop-color="#3d2f00"/><stop id="stop88" offset="0.990000009536743" stop-color="#3a2c00"/><stop id="stop90" offset="1" stop-color="#3a2c00"/></radialGradient><radialGradient cx="0" cy="0" gradientTransform="matrix(0,-1,0.886054,0,170.916,119.88)" gradientUnits="userSpaceOnUse" id="RadialGradient_1" r="237.42799"><stop id="stop93" offset="0" stop-color="#553e00"/><stop id="stop95" offset="0.792135000228882" stop-color="#403200"/><stop id="stop97" offset="0.990000009536743" stop-color="#3b2b00"/><stop id="stop99" offset="1" stop-color="#3b2b00"/></radialGradient><radialGradient cx="0" cy="0" gradientTransform="matrix(0,-1,0.886054,0,169.66,117.403)" gradientUnits="userSpaceOnUse" id="RadialGradient_2" r="237.42799"><stop id="stop102" offset="0" stop-color="#634700"/><stop id="stop104" offset="0.792135000228882" stop-color="#443400"/><stop id="stop106" offset="0.990000009536743" stop-color="#3c2a00"/><stop id="stop108" offset="1" stop-color="#3c2a00"/></radialGradient><radialGradient cx="0" cy="0" gradientTransform="matrix(0,-1,0.886054,0,168.403,114.925)" gradientUnits="userSpaceOnUse" id="RadialGradient_3" r="237.42799"><stop id="stop111" offset="0" stop-color="#724f00"/><stop id="stop113" offset="0.792135000228882" stop-color="#473600"/><stop id="stop115" offset="0.990000009536743" stop-color="#3c2900"/><stop id="stop117" offset="1" stop-color="#3c2900"/></radialGradient><radialGradient cx="0" cy="0" gradientTransform="matrix(0,-1,0.886054,0,167.146,112.448)" gradientUnits="userSpaceOnUse" id="RadialGradient_4" r="237.42799"><stop id="stop120" offset="0" stop-color="#805800"/><stop id="stop122" offset="0.792135000228882" stop-color="#4b3800"/><stop id="stop124" offset="0.990000009536743" stop-color="#3d2800"/><stop id="stop126" offset="1" stop-color="#3d2800"/></radialGradient><radialGradient cx="0" cy="0" gradientTransform="matrix(0,-1,0.886054,0,165.889,109.97)" gradientUnits="userSpaceOnUse" id="RadialGradient_5" r="237.42799"><stop id="stop129" offset="0" stop-color="#8e6000"/><stop id="stop131" offset="0.792135000228882" stop-color="#4e3b00"/><stop id="stop133" offset="0.990000009536743" stop-color="#3e2700"/><stop id="stop135" offset="1" stop-color="#3e2700"/></radialGradient><radialGradient cx="0" cy="0" gradientTransform="matrix(0,-1,0.886054,0,164.632,107.493)" gradientUnits="userSpaceOnUse" id="RadialGradient_6" r="237.42799"><stop id="stop138" offset="0" stop-color="#9c6900"/><stop id="stop140" offset="0.792135000228882" stop-color="#523d00"/><stop id="stop142" offset="0.990000009536743" stop-color="#3f2600"/><stop id="stop144" offset="1" stop-color="#3f2600"/></radialGradient><linearGradient gradientTransform="translate(218.601,165.399)" gradientUnits="userSpaceOnUse" id="LinearGradient" x1="0" x2="42.75" y1="0" y2="36.75"><stop id="stop147" offset="0" stop-color="#5c5c5c"/><stop id="stop149" offset="1" stop-color="#000000"/></linearGradient><linearGradient gradientTransform="translate(181.122,157.792)" gradientUnits="userSpaceOnUse" id="LinearGradient_1" x1="0" x2="-9.6719999" y1="0" y2="-141.858"><stop id="stop152" offset="0" stop-color="#ffffff"/><stop id="stop154" offset="1" stop-color="#cfd1d2"/></linearGradient><linearGradient gradientTransform="translate(259.851,172.899)" gradientUnits="userSpaceOnUse" id="LinearGradient_2" x1="0" x2="69.75" y1="0" y2="-189.75"><stop id="stop157" offset="0" stop-color="#b5b5b5"/><stop id="stop159" offset="1" stop-color="#000000"/></linearGradient><linearGradient gradientTransform="translate(204.11,87.059)" gradientUnits="userSpaceOnUse" id="LinearGradient_3" x1="0" x2="-51.527" y1="0" y2="-64.410004"><stop id="stop162" offset="0" stop-color="#df9000"/><stop id="stop164" offset="0.730337023735046" stop-color="#7f5200"/><stop id="stop166" offset="0.990000009536743" stop-color="#3f2600"/><stop id="stop168" offset="1" stop-color="#3f2600"/></linearGradient><linearGradient gradientTransform="translate(199.945,96.333)" gradientUnits="userSpaceOnUse" id="LinearGradient_4" x1="0" x2="19.041" y1="0" y2="85.190002"><stop id="stop171" offset="0" stop-color="#ba7d00"/><stop id="stop173" offset="0.792135000228882" stop-color="#7f5200"/><stop id="stop175" offset="0.990000009536743" stop-color="#3f2600"/><stop id="stop177" offset="1" stop-color="#3f2600"/></linearGradient><linearGradient gradientTransform="translate(129.134,111.014)" gradientUnits="userSpaceOnUse" id="LinearGradient_5" x1="0" x2="-1.007" y1="0" y2="-63.535999"><stop id="stop180" offset="0" stop-color="#df9000"/><stop id="stop182" offset="0.792135000228882" stop-color="#7f5200"/><stop id="stop184" offset="0.990000009536743" stop-color="#3f2600"/><stop id="stop186" offset="1" stop-color="#3f2600"/></linearGradient><linearGradient gradientTransform="translate(129.286,104.867)" gradientUnits="userSpaceOnUse" id="LinearGradient_6" x1="0" x2="15.098" y1="0" y2="58.375"><stop id="stop189" offset="0" stop-color="#df9000"/><stop id="stop191" offset="0.792135000228882" stop-color="#7f5200"/><stop id="stop193" offset="0.990000009536743" stop-color="#3f2600"/><stop id="stop195" offset="1" stop-color="#3f2600"/></linearGradient><radialGradient cx="0" cy="0" gradientTransform="matrix(0.69735527,-0.71672563,1.2319152,1.1986212,183.351,196.899)" gradientUnits="userSpaceOnUse" id="RadialGradient_7" r="38.716999"><stop id="stop198" offset="0" stop-color="#6b4c29"/><stop id="stop200" offset="1" stop-color="#a57348"/></radialGradient><radialGradient cx="0" cy="0" gradientTransform="matrix(0,-1,0.973942,0,134.346,314.993)" gradientUnits="userSpaceOnUse" id="RadialGradient_8" r="120.999"><stop id="stop203" offset="0" stop-color="#e0bf9e"/><stop id="stop205" offset="1.68539006263018E-02" stop-color="#e0bf9e"/><stop id="stop207" offset="0.202246993780136" stop-color="#e6b891"/><stop id="stop209" offset="1" stop-color="#7b5d39"/></radialGradient><radialGradient cx="0" cy="0" gradientTransform="matrix(-0.01429027,-0.99989789,1.2061368,-0.01723778,146.601,370.899)" gradientUnits="userSpaceOnUse" id="RadialGradient_9" r="87.054001"><stop id="stop212" offset="0" stop-color="#9a9a9a"/><stop id="stop214" offset="1" stop-color="#313131"/></radialGradient><linearGradient gradientTransform="translate(213.351,257.649)" gradientUnits="userSpaceOnUse" id="LinearGradient_7" x1="0" x2="-54" y1="0" y2="-87"><stop id="stop217" offset="0" stop-color="#484848"/><stop id="stop219" offset="1" stop-color="#000000"/></linearGradient><linearGradient gradientTransform="translate(133.101,343.149)" gradientUnits="userSpaceOnUse" id="LinearGradient_8" x1="0" x2="10.5" y1="0" y2="-85.5"><stop id="stop222" offset="0" stop-color="#8d8d8d"/><stop id="stop224" offset="1" stop-color="#000000"/></linearGradient><linearGradient gradientTransform="translate(239.24,380.259)" gradientUnits="userSpaceOnUse" id="LinearGradient_9" x1="0" x2="3.5999999" y1="0" y2="-129"><stop id="stop227" offset="0" stop-color="#ffffff"/><stop id="stop229" offset="1" stop-color="#000000"/></linearGradient><linearGradient gradientTransform="translate(115.007,352.336)" gradientUnits="userSpaceOnUse" id="LinearGradient_10" x1="0" x2="108" y1="0" y2="-33.75"><stop id="stop232" offset="0" stop-color="#ffffff"/><stop id="stop234" offset="1" stop-color="#000000"/></linearGradient><linearGradient gradientTransform="translate(226.61,87.059)" gradientUnits="userSpaceOnUse" id="LinearGradient_11" x1="0" x2="-51.527" y1="0" y2="-64.410004"><stop id="stop237" offset="0" stop-color="#df9000"/><stop id="stop239" offset="0.730337023735046" stop-color="#7f5200"/><stop id="stop241" offset="0.990000009536743" stop-color="#3f2600"/><stop id="stop243" offset="1" stop-color="#3f2600"/></linearGradient></defs><g id="g3356" transform="matrix(0.64050449,0,0,0.64031522,0,25.600003)"><path d="M 0,-3.651992 0,-36.328324 C 0,-38.342584 1.6353097,-39.980316 3.6503044,-39.980316 L 36.318198,-39.980316 C 38.331527,-39.980316 39.968502,-38.342584 39.968502,-36.328324 L 39.968502,-3.651992 C 39.968502,-1.6360658 38.331527,0 36.318198,0 L 3.6503044,0 C 1.6353097,0 0,-1.6360658 0,-3.651992 z M 38.719538,-3.651992 38.719538,-36.328324 C 38.719538,-37.651172 37.640434,-38.730775 36.318198,-38.730775 L 3.6503044,-38.730775 C 2.326403,-38.730775 1.2489636,-37.651172 1.2489636,-36.328324 L 1.2489636,-3.651992 C 1.2489636,-2.3274785 2.326403,-1.2495411 3.6503044,-1.2495411 L 36.318198,-1.2495411 C 37.640434,-1.2495411 38.719538,-2.3274785 38.719538,-3.651992 z" id="path3358" style="fill:#000000;fill-opacity:1;fill-rule:evenodd;stroke:#a33727"/><path d="M 6.2464835,-11.059272 6.2464835,-28.924377 C 6.2464835,-31.581734 8.4030274,-33.740941 11.060822,-33.740941 L 28.924333,-33.740941 C 31.580462,-33.740941 33.738671,-31.581734 33.738671,-28.924377 L 33.738671,-11.059272 C 33.738671,-8.4002481 31.580462,-6.2427072 28.924333,-6.2427072 L 11.060822,-6.2427072 C 8.4030274,-6.2427072 6.2464835,-8.4002481 6.2464835,-11.059272 z M 32.489708,-11.059272 32.489708,-28.924377 C 32.489708,-30.890321 30.889369,-32.4914 28.924333,-32.4914 L 11.060822,-32.4914 C 10.982554,-32.4914 10.904285,-32.488068 10.827682,-32.48307 L 11.242338,-32.48307 11.242338,-24.987489 9.9917092,-24.987489 9.9900439,-32.326461 C 8.5445766,-31.871628 7.4954472,-30.517125 7.4954472,-28.924377 L 7.4954472,-24.985823 32.473055,-24.985823 32.473055,-23.737948 7.4954472,-23.737948 7.4954472,-11.059272 C 7.4954472,-9.0916608 9.0941206,-7.4922483 11.060822,-7.4922483 L 28.924333,-7.4922483 C 30.889369,-7.4922483 32.489708,-9.0916608 32.489708,-11.059272 z M 13.73527,-16.23737 C 13.73527,-19.686103 16.536279,-22.486741 19.985084,-22.486741 23.432223,-22.486741 26.234898,-19.686103 26.234898,-16.23737 26.234898,-12.78697 23.432223,-9.9879983 19.985084,-9.9879983 16.536279,-9.9879983 13.73527,-12.78697 13.73527,-16.23737 z M 24.985934,-16.23737 C 24.985934,-18.99469 22.744461,-21.2372 19.985084,-21.2372 17.224041,-21.2372 14.984233,-18.99469 14.984233,-16.23737 14.984233,-13.478383 17.224041,-11.237539 19.985084,-11.237539 22.744461,-11.237539 24.985934,-13.478383 24.985934,-16.23737 z M 16.248184,-16.244034 C 16.248184,-18.30661 17.921796,-19.984327 19.985084,-19.984327 22.046706,-19.984327 23.721983,-18.30661 23.721983,-16.244034 23.721983,-14.179792 22.046706,-12.503741 19.985084,-12.503741 17.921796,-12.503741 16.248184,-14.179792 16.248184,-16.244034 z M 22.473019,-16.244034 C 22.473019,-17.618529 21.355613,-18.734786 19.985084,-18.734786 18.612889,-18.734786 17.497148,-17.618529 17.497148,-16.244034 17.497148,-14.867873 18.612889,-13.753282 19.985084,-13.753282 21.355613,-13.753282 22.473019,-14.867873 22.473019,-16.244034 z M 12.491302,-24.987489 12.491302,-32.48307 13.741931,-32.48307 13.741931,-24.987489 12.491302,-24.987489 z M 14.987564,-24.987489 14.987564,-32.48307 16.238193,-32.48307 16.238193,-24.987489 14.987564,-24.987489 z M 24.987599,-28.73278 C 24.987599,-30.108942 26.096679,-31.240193 27.475535,-31.240193 28.852726,-31.240193 29.963471,-30.108942 29.963471,-28.73278 29.963471,-27.354953 28.852726,-26.225368 27.475535,-26.225368 26.096679,-26.225368 24.987599,-27.354953 24.987599,-28.73278 z M 28.714507,-28.73278 C 28.714507,-29.430857 28.151641,-29.990652 27.475535,-29.990652 26.797764,-29.990652 26.236563,-29.430857 26.236563,-28.73278 26.236563,-28.033037 26.797764,-27.474909 27.475535,-27.474909 28.151641,-27.474909 28.714507,-28.033037 28.714507,-28.73278 z" id="path3360" style="fill:#000000;fill-opacity:1;fill-rule:evenodd;stroke:#a33727"/></g></svg>
