<?xml version="1.0" encoding="UTF-8" standalone="no"?>
<!DOCTYPE svg PUBLIC "-//W3C//DTD SVG 20010904//EN"
              "http://www.w3.org/TR/2001/REC-SVG-20010904/DTD/svg10.dtd">

<svg xmlns="http://www.w3.org/2000/svg"
     width="1.27778in" height="0.5in"
     viewBox="0 0 92 36">
  <path id="Selection"
        fill="#f3f7f0" stroke="black" stroke-width="1"
        d="M 3.65,1.99
           C 5.87,0.39 17.68,1.00 21.00,1.10
             21.00,1.10 79.00,1.10 79.00,1.10
             80.55,1.00 83.57,0.94 84.98,1.10
             96.87,4.41 83.11,19.65 82.62,20.62
             81.25,26.10 83.63,36.91 71.00,35.00
             71.00,35.00 76.00,24.00 76.00,24.00
             64.62,24.00 61.60,22.38 58.00,35.00
             58.00,35.00 50.00,35.00 50.00,35.00
             50.00,35.00 63.00,7.00 63.00,7.00
             58.69,7.00 46.44,6.07 43.41,8.60
             41.40,10.28 39.99,14.53 39.00,17.00
             39.00,17.00 50.00,17.00 50.00,17.00
             50.65,27.52 41.94,21.66 36.27,25.02
             33.32,26.85 33.24,32.17 30.75,34.38
             28.69,36.20 25.57,34.97 23.00,35.00
             23.00,35.00 35.00,7.00 35.00,7.00
             31.51,7.00 24.25,6.28 21.64,8.60
             20.02,10.03 13.67,24.03 12.31,27.00
             11.38,29.02 10.14,32.73 8.35,34.01
             6.60,35.26 3.10,34.99 1.00,35.00
             1.00,35.00 14.00,7.00 14.00,7.00
             14.00,7.00 1.00,7.00 1.00,7.00
             1.56,5.16 1.96,3.21 3.65,1.99 Z
           M 66.00,17.00
           C 66.00,17.00 80.00,17.00 80.00,17.00
             80.00,17.00 83.00,7.00 83.00,7.00
             72.23,7.00 69.40,5.08 66.00,17.00 Z" />
</svg>
